<svg width="18" height="18" viewBox="0 0 24 24" xmlns="http://www.w3.org/2000/svg">
  <path fill="#EA4335" d="M12 5.04c1.85 0 3.51.64 4.82 1.88l3.6-3.6C18.21 1.18 15.36 0 12 0 7.32 0 3.27 2.69 1.31 6.61l4.2 3.27C6.46 7.13 8.97 5.04 12 5.04z"/>
  <path fill="#4285F4" d="M23.49 12.27c0-.82-.07-1.6-.21-2.36H12v4.47h6.46c-.28 1.5-1.13 2.77-2.41 3.62l3.69 2.86c2.16-1.99 3.41-4.93 3.41-8.59z"/>
  <path fill="#FBBC05" d="M5.51 14.21c-.23-.7-.36-1.44-.36-2.21s.13-1.51.36-2.21l-4.2-3.27C.48 8.13 0 9.99 0 12s.48 3.87 1.31 5.48l4.2-3.27z"/>
  <path fill="#34A853" d="M12 24c3.24 0 5.96-1.07 7.95-2.91l-3.69-2.86c-1.03.69-2.34 1.1-4.26 1.1-3.03 0-5.54-2.09-6.49-4.94l-4.2 3.27C3.27 21.31 7.32 24 12 24z"/>
</svg>
